<?xml version="1.0" encoding="UTF-8"?>
<svg id="Layer_1" xmlns="http://www.w3.org/2000/svg" version="1.1" viewBox="0 0 79.22 71.15">
  <!-- Generator: Adobe Illustrator 29.1.0, SVG Export Plug-In . SVG Version: 2.1.0 Build 142)  -->
  <defs>
    <style>
      .st0 {
        fill: #026034;
      }
    </style>
  </defs>
  <path class="st0" d="M5.26,4.72c4.69,3.92,8.6,9.18,20.42,10.98-2.12,4.82-3.4,7.13-3.4,7.13C11.81,18.78,7.57,15,5.26,4.72h0Z"/>
  <path class="st0" d="M55.22,25.66c-1.16,0-1.03-.13-2.83,0-1.16-3.08,2.76-1.41,2.05-4.49-.71-3.08,2.12-7.13-14.7-7.06h-.26c-16.82-.13-14.06,3.98-14.7,7.06-.71,3.08,3.21,1.41,2.05,4.49-1.8-.13-1.67,0-2.83,0-5.07-4.69-9.38-5.39-15.73-3.53,4.56,16.57,14.51,13.36,17.72,9.7,3.08-3.27,6.29,1.16,4.56,2.76-6.42,2.31-.26,4.62-1.28,10.15-.39,2.18-.83,5.39-.83,9.18,0,2.31,2.25,1.61.83,5.27,1.54,4.11,5.84,6.81,10.21,7.26h.26c4.43-.45,8.67-3.15,10.21-7.26-1.41-3.66.83-2.89.83-5.27,0-3.79-.45-7-.83-9.18-1.09-5.52,5.14-7.83-1.28-10.15-1.73-1.61,1.41-5.97,4.56-2.76,3.27,3.66,13.23,6.81,17.72-9.7-6.36-1.8-10.66-1.16-15.73,3.53h0ZM46.35,55.26c0,.64.51,4.62-4.17,4.56h-5.2c-4.69,0-4.11-3.92-4.17-4.56,0-.58-1.03-3.02,2.05-.83,3.08,2.25,1.93-.64.64-2.12-1.8-2.38.77-2.05,3.92-1.41h.26c3.15-.64,5.65-.96,3.92,1.41-1.28,1.48-2.44,4.37.64,2.12,3.08-2.25,2.12.19,2.05.83h.06Z"/>
  <path class="st0" d="M73.97,4.72c-4.69,3.92-8.6,9.18-20.42,10.98,2.12,4.82,3.4,7.13,3.4,7.13,10.47-4.05,14.7-7.83,17.02-18.11h0Z"/>
</svg>